<svg width="37" height="36" viewBox="0 0 37 36" fill="none" xmlns="http://www.w3.org/2000/svg">
<path d="M18.28 2.96C16.3364 2.96 14.4119 3.34281 12.6163 4.08658C10.8206 4.83035 9.18911 5.92051 7.8148 7.29482C5.03926 10.0704 3.47998 13.8348 3.47998 17.76C3.47998 24.3016 7.72758 29.8516 13.6032 31.82C14.3432 31.9384 14.58 31.4796 14.58 31.08C14.58 30.7396 14.58 29.8072 14.58 28.5788C10.4804 29.4668 9.60718 26.5956 9.60718 26.5956C8.92638 24.8788 7.96438 24.42 7.96438 24.42C6.61758 23.5024 8.06798 23.532 8.06798 23.532C9.54798 23.6356 10.3324 25.0564 10.3324 25.0564C11.62 27.306 13.7956 26.64 14.6392 26.2848C14.7724 25.3228 15.1572 24.6716 15.5716 24.3016C12.286 23.9316 8.83758 22.6588 8.83758 17.02C8.83758 15.3772 9.39998 14.06 10.362 13.0092C10.214 12.6392 9.69598 11.1 10.51 9.102C10.51 9.102 11.7532 8.7024 14.58 10.6116C15.7492 10.286 17.022 10.1232 18.28 10.1232C19.538 10.1232 20.8108 10.286 21.98 10.6116C24.8068 8.7024 26.05 9.102 26.05 9.102C26.864 11.1 26.346 12.6392 26.198 13.0092C27.16 14.06 27.7224 15.3772 27.7224 17.02C27.7224 22.6736 24.2592 23.9168 20.9588 24.2868C21.4916 24.7456 21.98 25.6484 21.98 27.0248C21.98 29.008 21.98 30.6064 21.98 31.08C21.98 31.4796 22.2168 31.9532 22.9716 31.82C28.8472 29.8368 33.08 24.3016 33.08 17.76C33.08 15.8164 32.6972 13.8919 31.9534 12.0963C31.2096 10.3007 30.1195 8.66913 28.7452 7.29482C27.3709 5.92051 25.7393 4.83035 23.9437 4.08658C22.1481 3.34281 20.2235 2.96 18.28 2.96Z" fill="white"/>
</svg>
