<svg width="36" height="37" viewBox="0 0 36 37" fill="none" xmlns="http://www.w3.org/2000/svg">
<path d="M17.76 3.47998C15.8164 3.47998 13.8919 3.86279 12.0962 4.60656C10.3006 5.35033 8.66909 6.44049 7.29478 7.8148C4.51924 10.5903 2.95996 14.3548 2.95996 18.28C2.95996 24.8216 7.20756 30.3716 13.0832 32.34C13.8232 32.4584 14.06 31.9996 14.06 31.6C14.06 31.2596 14.06 30.3272 14.06 29.0988C9.96036 29.9868 9.08716 27.1156 9.08716 27.1156C8.40636 25.3988 7.44436 24.94 7.44436 24.94C6.09756 24.0224 7.54796 24.052 7.54796 24.052C9.02796 24.1556 9.81236 25.5764 9.81236 25.5764C11.1 27.826 13.2756 27.16 14.1192 26.8048C14.2524 25.8428 14.6372 25.1916 15.0516 24.8216C11.766 24.4516 8.31756 23.1788 8.31756 17.54C8.31756 15.8972 8.87996 14.58 9.84196 13.5292C9.69396 13.1592 9.17596 11.62 9.98996 9.62198C9.98996 9.62198 11.2332 9.22238 14.06 11.1316C15.2292 10.806 16.502 10.6432 17.76 10.6432C19.018 10.6432 20.2908 10.806 21.46 11.1316C24.2868 9.22238 25.53 9.62198 25.53 9.62198C26.344 11.62 25.826 13.1592 25.678 13.5292C26.64 14.58 27.2024 15.8972 27.2024 17.54C27.2024 23.1936 23.7392 24.4368 20.4388 24.8068C20.9716 25.2656 21.46 26.1684 21.46 27.5448C21.46 29.528 21.46 31.1264 21.46 31.6C21.46 31.9996 21.6968 32.4732 22.4516 32.34C28.3272 30.3568 32.56 24.8216 32.56 18.28C32.56 16.3364 32.1772 14.4119 31.4334 12.6163C30.6896 10.8206 29.5995 9.18911 28.2251 7.8148C26.8508 6.44049 25.2193 5.35033 23.4237 4.60656C21.6281 3.86279 19.7035 3.47998 17.76 3.47998Z" fill="black"/>
</svg>
