<svg width="36" height="36" viewBox="0 0 36 36" fill="none" xmlns="http://www.w3.org/2000/svg">
<path d="M11.544 3H23.976C28.712 3 32.56 6.848 32.56 11.584V24.016C32.56 26.2926 31.6556 28.476 30.0458 30.0858C28.436 31.6956 26.2526 32.6 23.976 32.6H11.544C6.80796 32.6 2.95996 28.752 2.95996 24.016V11.584C2.95996 9.30738 3.86434 7.12401 5.47416 5.5142C7.08397 3.90438 9.26734 3 11.544 3ZM11.248 5.96C9.83489 5.96 8.47969 6.52134 7.4805 7.52054C6.4813 8.51973 5.91996 9.87493 5.91996 11.288V24.312C5.91996 27.2572 8.30276 29.64 11.248 29.64H24.272C25.685 29.64 27.0402 29.0787 28.0394 28.0795C29.0386 27.0803 29.6 25.7251 29.6 24.312V11.288C29.6 8.3428 27.2172 5.96 24.272 5.96H11.248ZM25.53 8.18C26.0206 8.18 26.4912 8.37491 26.8381 8.72185C27.1851 9.0688 27.38 9.53935 27.38 10.03C27.38 10.5207 27.1851 10.9912 26.8381 11.3381C26.4912 11.6851 26.0206 11.88 25.53 11.88C25.0393 11.88 24.5688 11.6851 24.2218 11.3381C23.8749 10.9912 23.68 10.5207 23.68 10.03C23.68 9.53935 23.8749 9.0688 24.2218 8.72185C24.5688 8.37491 25.0393 8.18 25.53 8.18ZM17.76 10.4C19.7226 10.4 21.6048 11.1796 22.9926 12.5674C24.3803 13.9552 25.16 15.8374 25.16 17.8C25.16 19.7626 24.3803 21.6448 22.9926 23.0326C21.6048 24.4204 19.7226 25.2 17.76 25.2C15.7974 25.2 13.9151 24.4204 12.5274 23.0326C11.1396 21.6448 10.36 19.7626 10.36 17.8C10.36 15.8374 11.1396 13.9552 12.5274 12.5674C13.9151 11.1796 15.7974 10.4 17.76 10.4ZM17.76 13.36C16.5824 13.36 15.4531 13.8278 14.6204 14.6604C13.7877 15.4931 13.32 16.6224 13.32 17.8C13.32 18.9776 13.7877 20.1069 14.6204 20.9396C15.4531 21.7722 16.5824 22.24 17.76 22.24C18.9375 22.24 20.0669 21.7722 20.8995 20.9396C21.7322 20.1069 22.2 18.9776 22.2 17.8C22.2 16.6224 21.7322 15.4931 20.8995 14.6604C20.0669 13.8278 18.9375 13.36 17.76 13.36Z" fill="black"/>
</svg>
