<svg width="36" height="36" viewBox="0 0 36 36" fill="none" xmlns="http://www.w3.org/2000/svg">
<path d="M11.584 2.96H24.016C28.752 2.96 32.6 6.808 32.6 11.544V23.976C32.6 26.2526 31.6956 28.436 30.0858 30.0458C28.476 31.6556 26.2926 32.56 24.016 32.56H11.584C6.848 32.56 3 28.712 3 23.976V11.544C3 9.26738 3.90438 7.08401 5.5142 5.47419C7.12401 3.86438 9.30738 2.96 11.584 2.96ZM11.288 5.92C9.87493 5.92 8.51973 6.48134 7.52054 7.48053C6.52134 8.47973 5.96 9.83493 5.96 11.248V24.272C5.96 27.2172 8.3428 29.6 11.288 29.6H24.312C25.7251 29.6 27.0803 29.0387 28.0795 28.0395C29.0787 27.0403 29.64 25.6851 29.64 24.272V11.248C29.64 8.3028 27.2572 5.92 24.312 5.92H11.288ZM25.57 8.14C26.0607 8.14 26.5312 8.33491 26.8782 8.68185C27.2251 9.02879 27.42 9.49935 27.42 9.99C27.42 10.4807 27.2251 10.9512 26.8782 11.2981C26.5312 11.6451 26.0607 11.84 25.57 11.84C25.0794 11.84 24.6088 11.6451 24.2619 11.2981C23.9149 10.9512 23.72 10.4807 23.72 9.99C23.72 9.49935 23.9149 9.02879 24.2619 8.68185C24.6088 8.33491 25.0794 8.14 25.57 8.14ZM17.8 10.36C19.7626 10.36 21.6448 11.1396 23.0326 12.5274C24.4204 13.9152 25.2 15.7974 25.2 17.76C25.2 19.7226 24.4204 21.6048 23.0326 22.9926C21.6448 24.3804 19.7626 25.16 17.8 25.16C15.8374 25.16 13.9552 24.3804 12.5674 22.9926C11.1796 21.6048 10.4 19.7226 10.4 17.76C10.4 15.7974 11.1796 13.9152 12.5674 12.5274C13.9552 11.1396 15.8374 10.36 17.8 10.36ZM17.8 13.32C16.6224 13.32 15.4931 13.7878 14.6604 14.6204C13.8278 15.4531 13.36 16.5824 13.36 17.76C13.36 18.9376 13.8278 20.0669 14.6604 20.8996C15.4931 21.7322 16.6224 22.2 17.8 22.2C18.9776 22.2 20.1069 21.7322 20.9396 20.8996C21.7722 20.0669 22.24 18.9376 22.24 17.76C22.24 16.5824 21.7722 15.4531 20.9396 14.6204C20.1069 13.7878 18.9776 13.32 17.8 13.32Z" fill="white"/>
</svg>
