<svg width="36" height="36" viewBox="0 0 36 36" fill="none" xmlns="http://www.w3.org/2000/svg">
<path d="M28.1199 4.43994C28.905 4.43994 29.6579 4.7518 30.213 5.30691C30.7681 5.86201 31.0799 6.6149 31.0799 7.39994V28.1199C31.0799 28.905 30.7681 29.6579 30.213 30.213C29.6579 30.7681 28.905 31.0799 28.1199 31.0799H7.39994C6.6149 31.0799 5.86201 30.7681 5.30691 30.213C4.7518 29.6579 4.43994 28.905 4.43994 28.1199V7.39994C4.43994 6.6149 4.7518 5.86201 5.30691 5.30691C5.86201 4.7518 6.6149 4.43994 7.39994 4.43994H28.1199ZM27.3799 27.3799V19.5359C27.3799 18.2563 26.8716 17.0291 25.9668 16.1243C25.062 15.2195 23.8348 14.7111 22.5551 14.7111C21.2971 14.7111 19.8319 15.4807 19.1215 16.6351V14.9923H14.9923V27.3799H19.1215V20.0835C19.1215 18.9439 20.0391 18.0115 21.1787 18.0115C21.7283 18.0115 22.2553 18.2298 22.6439 18.6184C23.0324 19.007 23.2507 19.534 23.2507 20.0835V27.3799H27.3799ZM10.1823 12.6687C10.8418 12.6687 11.4742 12.4068 11.9405 11.9405C12.4068 11.4742 12.6687 10.8418 12.6687 10.1823C12.6687 8.80594 11.5587 7.68114 10.1823 7.68114C9.51898 7.68114 8.88279 7.94466 8.41373 8.41373C7.94466 8.88279 7.68114 9.51898 7.68114 10.1823C7.68114 11.5587 8.80594 12.6687 10.1823 12.6687ZM12.2395 27.3799V14.9923H8.13994V27.3799H12.2395Z" fill="black"/>
</svg>
