<svg width="36" height="36" viewBox="0 0 36 36" fill="none" xmlns="http://www.w3.org/2000/svg">
<path d="M28.1199 4.44C28.905 4.44 29.6579 4.75186 30.213 5.30697C30.7681 5.86207 31.0799 6.61496 31.0799 7.4V28.12C31.0799 28.905 30.7681 29.6579 30.213 30.213C29.6579 30.7681 28.905 31.08 28.1199 31.08H7.39994C6.6149 31.08 5.86201 30.7681 5.30691 30.213C4.7518 29.6579 4.43994 28.905 4.43994 28.12V7.4C4.43994 6.61496 4.7518 5.86207 5.30691 5.30697C5.86201 4.75186 6.6149 4.44 7.39994 4.44H28.1199ZM27.3799 27.38V19.536C27.3799 18.2564 26.8716 17.0292 25.9668 16.1244C25.062 15.2195 23.8348 14.7112 22.5551 14.7112C21.2971 14.7112 19.8319 15.4808 19.1215 16.6352V14.9924H14.9923V27.38H19.1215V20.0836C19.1215 18.944 20.0391 18.0116 21.1787 18.0116C21.7283 18.0116 22.2553 18.2299 22.6439 18.6185C23.0324 19.0071 23.2507 19.5341 23.2507 20.0836V27.38H27.3799ZM10.1823 12.6688C10.8418 12.6688 11.4742 12.4068 11.9405 11.9406C12.4068 11.4743 12.6687 10.8418 12.6687 10.1824C12.6687 8.806 11.5587 7.6812 10.1823 7.6812C9.51898 7.6812 8.88279 7.94472 8.41373 8.41379C7.94466 8.88285 7.68114 9.51904 7.68114 10.1824C7.68114 11.5588 8.80594 12.6688 10.1823 12.6688ZM12.2395 27.38V14.9924H8.13994V27.38H12.2395Z" fill="white"/>
</svg>
